<svg xmlns="http://www.w3.org/2000/svg" xmlns:xlink="http://www.w3.org/1999/xlink" viewBox="0 0 211.48 149"><defs><style>.cls-1,.cls-2,.cls-3,.cls-4,.cls-6{fill:#fff;}.cls-1,.cls-2,.cls-3,.cls-4,.cls-5,.cls-6,.cls-7,.cls-8,.cls-9{stroke-linecap:round;stroke-miterlimit:10;stroke-width:8px;}.cls-1{stroke:url(#FIRE_GRADE);}.cls-2{stroke:url(#FIRE_GRADE-2);}.cls-3{stroke:url(#linear-gradient);}.cls-4{stroke:url(#linear-gradient-2);}.cls-5,.cls-7,.cls-8,.cls-9{fill:none;}.cls-5{stroke:url(#FIRE_GRADE-3);}.cls-6{stroke:url(#FIRE_GRADE-4);}.cls-7{stroke:url(#FIRE_GRADE-5);}.cls-8{stroke:url(#FIRE_GRADE-6);}.cls-9{stroke:url(#FIRE_GRADE-7);}</style><linearGradient id="FIRE_GRADE" x1="86.83" y1="85.78" x2="150.83" y2="85.78" gradientUnits="userSpaceOnUse"><stop offset="0.01" stop-color="#d44e00"/><stop offset="0.14" stop-color="#da5509"/><stop offset="0.35" stop-color="#ec6923"/><stop offset="0.55" stop-color="#ff7f3f"/><stop offset="0.99" stop-color="#ff9d01"/></linearGradient><linearGradient id="FIRE_GRADE-2" x1="4.14" y1="53" x2="54.8" y2="53" xlink:href="#FIRE_GRADE"/><linearGradient id="linear-gradient" x1="10.77" y1="73.71" x2="65.57" y2="73.71" xlink:href="#FIRE_GRADE"/><linearGradient id="linear-gradient-2" x1="0" y1="94" x2="51.48" y2="94" xlink:href="#FIRE_GRADE"/><linearGradient id="FIRE_GRADE-3" x1="20.76" y1="61.41" x2="189.5" y2="61.41" xlink:href="#FIRE_GRADE"/><linearGradient id="FIRE_GRADE-4" x1="151.89" y1="46.6" x2="172.18" y2="46.6" xlink:href="#FIRE_GRADE"/><linearGradient id="FIRE_GRADE-5" x1="60.99" y1="56.17" x2="211.48" y2="56.17" xlink:href="#FIRE_GRADE"/><linearGradient id="FIRE_GRADE-6" x1="113.01" y1="138.96" x2="133.1" y2="138.96" xlink:href="#FIRE_GRADE"/><linearGradient id="FIRE_GRADE-7" x1="156.12" y1="138.96" x2="176.21" y2="138.96" xlink:href="#FIRE_GRADE"/></defs><g id="Layer_2" data-name="Layer 2"><g id="Layer_1-2" data-name="Layer 1"><path class="cls-1" d="M90.83,85.78h56"/><path class="cls-2" d="M8.14,53H50.8"/><path class="cls-3" d="M14.77,73.71h46.8"/><path class="cls-4" d="M4,94H47.48"/><path class="cls-5" d="M24.76,4,45.63,7.29c12.16,2.35,14.84,8.16,18,16l31.94,78.53a27.23,27.23,0,0,0,25.23,17H185.5"/><line class="cls-6" x1="155.89" y1="57.78" x2="168.18" y2="35.42"/><path class="cls-7" d="M65,26.55H204a3.46,3.46,0,0,1,3.27,4.59L188.78,85a1.12,1.12,0,0,1-1.07.77H172.9a.83.83,0,0,1-.68-.35L154.48,60l-19.74-.41.4,18.54-1.61-41.9"/><circle class="cls-8" cx="123.06" cy="138.96" r="6.04"/><circle class="cls-9" cx="166.16" cy="138.96" r="6.04"/></g></g></svg>