<svg xmlns="http://www.w3.org/2000/svg" xmlns:xlink="http://www.w3.org/1999/xlink" viewBox="0 0 1032.27 250.9"><defs><style>.cls-1,.cls-2,.cls-3,.cls-4,.cls-6{fill:#fff;}.cls-1,.cls-2,.cls-3,.cls-4,.cls-5,.cls-6,.cls-7,.cls-8,.cls-9{stroke-linecap:round;stroke-miterlimit:10;stroke-width:8px;}.cls-1{stroke:url(#FIRE_GRADE);}.cls-2{stroke:url(#FIRE_GRADE-2);}.cls-3{stroke:url(#linear-gradient);}.cls-4{stroke:url(#linear-gradient-2);}.cls-5,.cls-7,.cls-8,.cls-9{fill:none;}.cls-5{stroke:url(#FIRE_GRADE-3);}.cls-6{stroke:url(#FIRE_GRADE-4);}.cls-7{stroke:url(#FIRE_GRADE-5);}.cls-8{stroke:url(#FIRE_GRADE-6);}.cls-9{stroke:url(#FIRE_GRADE-7);}.cls-10{font-size:146.32px;fill:#fbb03b;font-family:BNElements, BN Elements;}.cls-11{fill:url(#FIRE_GRADE-8);}</style><linearGradient id="FIRE_GRADE" x1="589.25" y1="137.24" x2="653.24" y2="137.24" gradientUnits="userSpaceOnUse"><stop offset="0.01" stop-color="#d44e00"/><stop offset="0.14" stop-color="#da5509"/><stop offset="0.35" stop-color="#ec6923"/><stop offset="0.55" stop-color="#ff7f3f"/><stop offset="0.99" stop-color="#ff9d01"/></linearGradient><linearGradient id="FIRE_GRADE-2" x1="506.56" y1="104.46" x2="557.22" y2="104.46" xlink:href="#FIRE_GRADE"/><linearGradient id="linear-gradient" x1="513.19" y1="125.17" x2="567.98" y2="125.17" xlink:href="#FIRE_GRADE"/><linearGradient id="linear-gradient-2" x1="502.42" y1="145.46" x2="553.9" y2="145.46" xlink:href="#FIRE_GRADE"/><linearGradient id="FIRE_GRADE-3" x1="523.18" y1="112.87" x2="691.92" y2="112.87" xlink:href="#FIRE_GRADE"/><linearGradient id="FIRE_GRADE-4" x1="654.31" y1="98.06" x2="674.6" y2="98.06" xlink:href="#FIRE_GRADE"/><linearGradient id="FIRE_GRADE-5" x1="563.41" y1="107.63" x2="713.9" y2="107.63" xlink:href="#FIRE_GRADE"/><linearGradient id="FIRE_GRADE-6" x1="615.43" y1="190.42" x2="635.52" y2="190.42" xlink:href="#FIRE_GRADE"/><linearGradient id="FIRE_GRADE-7" x1="658.54" y1="190.42" x2="678.62" y2="190.42" xlink:href="#FIRE_GRADE"/><linearGradient id="FIRE_GRADE-8" x1="170.34" y1="125.45" x2="275.34" y2="125.45" xlink:href="#FIRE_GRADE"/></defs><g id="Layer_2" data-name="Layer 2"><g id="Layer_1-2" data-name="Layer 1"><path class="cls-1" d="M593.25,137.24h56"/><path class="cls-2" d="M510.56,104.46h42.66"/><path class="cls-3" d="M517.19,125.17H564"/><path class="cls-4" d="M506.42,145.46H549.9"/><path class="cls-5" d="M527.18,55.46l20.87,3.3c12.16,2.34,14.84,8.16,18,16L598,153.3a27.27,27.27,0,0,0,25.24,17h64.66"/><line class="cls-6" x1="658.31" y1="109.24" x2="670.6" y2="86.89"/><path class="cls-7" d="M567.41,78h139a3.46,3.46,0,0,1,3.28,4.58L691.2,136.48a1.11,1.11,0,0,1-1.07.76H675.32a.81.81,0,0,1-.68-.35L656.9,111.46l-19.74-.4.4,18.53L636,87.69"/><circle class="cls-8" cx="625.48" cy="190.42" r="6.04"/><circle class="cls-9" cx="668.58" cy="190.42" r="6.04"/><text/><text class="cls-10" transform="translate(8.49 173.39)"><tspan xml:space="preserve">FL SH   ART</tspan></text><polygon class="cls-11" points="170.34 143.37 218.57 143.37 201.81 250.9 275.34 107.53 227.1 107.53 243.84 0 170.34 143.37"/><text/></g></g></svg>